Coordinates
version=1
nRows=11
nColumns=40
inDegrees=yes

Units are S.I. units (second, meters, Newtons, ...)
Angles are in degrees.

endheader
time	pelvis_tilt	pelvis_list	pelvis_rotation	pelvis_tx	pelvis_ty	pelvis_tz	hip_flexion_r	hip_adduction_r	hip_rotation_r	knee_angle_r	knee_angle_r_beta	ankle_angle_r	subtalar_angle_r	mtp_angle_r	hip_flexion_l	hip_adduction_l	hip_rotation_l	knee_angle_l	knee_angle_l_beta	ankle_angle_l	subtalar_angle_l	mtp_angle_l	lumbar_extension	lumbar_bending	lumbar_rotation	arm_flex_r	arm_add_r	arm_rot_r	elbow_flex_r	pro_sup_r	wrist_flex_r	wrist_dev_r	arm_flex_l	arm_add_l	arm_rot_l	elbow_flex_l	pro_sup_l	wrist_flex_l	wrist_dev_l
     25.45000000	     -2.96953563	     -5.05656817	      4.92486983	      0.86655960	      0.93466558	      0.50751953	      8.11115745	      4.84325616	    -20.10760670	     11.78863005	     11.78863005	      8.92631791	      3.55497594	     -5.13393617	     30.84868868	    -12.15742137	      0.91880734	     54.96569187	     54.96569187	      7.82438349	    -15.14475607	      7.83668735	     -9.48652385	      7.03903910	      3.90702921	     25.09679201	    -17.70379357	     -7.08207983	     61.08022389	     45.58109858	      0.00000000	      0.00000000	     -4.12505635	     -6.64667459	     -1.02972865	     28.91167585	     45.33237682	      0.00000000	      0.00000000
     25.46292857	     -3.10799686	     -5.03344938	      5.11145003	      0.86507889	      0.93455833	      0.50755424	      7.84351534	      4.82326545	    -20.32089061	     11.71734552	     11.71734552	      9.09663538	      3.73398119	     -5.30197981	     31.51657561	    -11.97342267	      0.42107760	     51.68857567	     51.68857567	      8.21706186	    -15.12696520	      7.86759760	     -9.45818816	      7.20491085	      3.98831243	     27.04422715	    -17.76592734	     -7.20958952	     62.32873796	     45.55098907	      0.00000000	      0.00000000	     -4.87667512	     -6.47016673	     -0.87196359	     28.31023073	     45.30274534	      0.00000000	      0.00000000
     25.47585714	     -3.19229030	     -5.03235174	      5.31746343	      0.86371429	      0.93447546	      0.50754240	      7.44519383	      4.84541427	    -20.63507461	     11.51632295	     11.51632295	      9.28709993	      4.14137297	     -5.41772862	     31.85985174	    -11.76803118	     -0.08384263	     47.99281836	     47.99281836	      8.41748894	    -14.94397624	      7.70656163	     -9.49204321	      7.43107594	      3.98173489	     28.87333640	    -17.77148680	     -7.22590266	     64.04431724	     45.50041799	      0.00000000	      0.00000000	     -5.77482572	     -6.32711770	     -0.69669662	     27.99656266	     45.26615200	      0.00000000	      0.00000000
     25.48878571	     -3.32039175	     -5.09242622	      5.50800957	      0.86240256	      0.93419907	      0.50744389	      7.09235406	      4.90319052	    -21.18054906	     11.30779712	     11.30779712	      9.49540225	      4.91813169	     -5.47242605	     32.04142725	    -11.56558508	     -0.54868714	     44.00763530	     44.00763530	      8.25227817	    -14.68889057	      6.85939807	     -9.53420267	      7.68855058	      4.03097364	     30.42138774	    -17.98205873	     -7.04590008	     66.64834316	     45.41238107	      0.00000000	      0.00000000	     -6.80426699	     -6.20445404	     -0.31005657	     28.21408266	     45.19780713	      0.00000000	      0.00000000
     25.50171429	     -3.38432561	     -5.08381526	      5.68515764	      0.86116866	      0.93402146	      0.50724966	      6.71431891	      4.91230128	    -21.36426459	     11.19014596	     11.19014596	      9.73117751	      5.17390107	     -5.46818159	     31.96750765	    -11.27297218	     -1.04222126	     39.88199728	     39.88199728	      8.32719057	    -13.97174502	      6.84376268	     -9.59311230	      7.89304579	      4.18783925	     32.03242757	    -18.13782858	     -7.03537436	     68.44548687	     45.35974932	      0.00000000	      0.00000000	     -7.66030930	     -6.09752670	      0.02183151	     28.28475211	     45.13823686	      0.00000000	      0.00000000
     25.51464286	     -3.62366587	     -5.20552695	      5.86019703	      0.85987269	      0.93341428	      0.50696572	      6.59311012	      5.04014795	    -21.51022094	     11.12948378	     11.12948378	      9.91905567	      5.16531130	     -5.53590686	     32.11135326	    -11.07312674	     -1.48083306	     35.90939503	     35.90939503	      8.56927987	    -12.90486584	      7.29636895	     -9.38613006	      8.25774058	      4.46691428	     33.63411208	    -18.40294010	     -7.14126457	     69.47908301	     45.33653395	      0.00000000	      0.00000000	     -8.31878318	     -5.92626074	      0.13546145	     28.19680375	     45.11115766	      0.00000000	      0.00000000
     25.52757143	     -3.60664414	     -5.07004884	      5.96806485	      0.85887552	      0.93333130	      0.50665791	      6.08263897	      4.93800816	    -21.61534548	     10.96435521	     10.96435521	     10.18461120	      5.39552569	     -5.56342539	     31.67992824	    -10.66223753	     -2.08650116	     31.77416431	     31.77416431	      8.78078930	    -11.59401083	      7.82593397	     -9.54138976	      8.22961678	      4.32707624	     35.08744200	    -18.08024682	     -7.01280228	     71.31800420	     45.27775765	      0.00000000	      0.00000000	     -9.16294326	     -5.91525887	      0.35152524	     28.13194511	     45.06615728	      0.00000000	      0.00000000
     25.54050000	     -3.66097907	     -5.14614544	      6.14599404	      0.85780949	      0.93291046	      0.50617919	      5.69465010	      5.03319226	    -21.86637767	     10.82311730	     10.82311730	     10.45093311	      5.70448710	     -5.54247377	     31.53181093	    -10.42349641	     -2.52776540	     28.08987987	     28.08987987	      9.00668228	     -9.97269959	      8.31597659	     -9.63653421	      8.49554816	      4.17071652	     36.34623807	    -17.87804802	     -6.79951557	     73.67267739	     45.20029856	      0.00000000	      0.00000000	    -10.00094748	     -5.85404036	      0.70649310	     28.37542420	     45.00132296	      0.00000000	      0.00000000
     25.55342857	     -3.75991375	     -5.13770102	      6.28008007	      0.85680846	      0.93250604	      0.50560690	      5.34239912	      5.04178433	    -21.97246333	     10.68333889	     10.68333889	     10.72444669	      5.85409857	     -5.47669502	     31.38562745	    -10.13584591	     -3.15654802	     24.63876634	     24.63876634	      9.17886394	     -8.08098173	      8.93533409	     -9.63356791	      8.66164977	      4.14143877	     37.35837493	    -17.77476570	     -6.60676287	     76.02305101	     45.12551457	      0.00000000	      0.00000000	    -10.71557739	     -5.86007864	      1.16228424	     28.70048483	     44.92711174	      0.00000000	      0.00000000
     25.56635714	     -3.91604053	     -5.07863661	      6.38945032	      0.85582206	      0.93209127	      0.50498821	      5.05673014	      4.99734309	    -21.94213440	     10.55831408	     10.55831408	     10.96514422	      5.80895067	     -5.48534939	     31.30320612	     -9.77586109	     -3.78471554	     21.49146350	     21.49146350	      9.14611217	     -6.31177087	      9.55954092	     -9.53293479	      8.69257214	      4.10671842	     38.32144187	    -17.55040687	     -6.51241413	     77.52193003	     45.08007859	      0.00000000	      0.00000000	    -11.25465690	     -5.87005909	      1.40631239	     28.69389698	     44.88644649	      0.00000000	      0.00000000
     25.57928571	     -4.02838501	     -5.08347935	      6.49019982	      0.85486233	      0.93167451	      0.50427691	      4.71383259	      5.02759376	    -21.89714745	     10.39328670	     10.39328670	     11.16528938	      5.79153909	     -5.44773032	     31.31470071	     -9.51303797	     -4.43461791	     18.93314729	     18.93314729	      9.21829709	     -4.41812260	     10.04366945	     -9.50821107	      8.78606594	      3.94686793	     39.21773799	    -17.23105301	     -6.35298132	     79.55604260	     45.01670011	      0.00000000	      0.00000000	    -11.72275532	     -5.85367072	      1.72580794	     28.77697620	     44.83830054	      0.00000000	      0.00000000
